<svg width="100" height="100" viewBox="0 0 232 233" fill="none" xmlns="http://www.w3.org/2000/svg">
    <g clip-path="url(#clip0_102_146)">
        <path fill-rule="evenodd" clip-rule="evenodd" d="M37.5 192.5C37.5 60 191.5 60.5 191.5 192.5C191.5 218 156.315 196.869 117 196C79.3511 195.167 37.5 214 37.5 192.5ZM72.5 170.5C72.5 105 108 103 108 170.5C100 165 82 164.5 72.5 170.5ZM122.5 170.5C122.5 119 158 130 158 170.5C150 165 132 164.5 122.5 170.5Z" fill="lightgrey"/>
        <ellipse cx="190.55" cy="70.5157" rx="38.1257" ry="16.7568" transform="rotate(152.395 190.55 70.5157)" fill="lightgrey"/>
        <ellipse cx="32.1311" cy="63.052" rx="36.9974" ry="21.1703" transform="rotate(91.9886 32.1311 63.052)" fill="lightgrey"/>
        <path d="M55.1996 85.2859C56.3451 79.0946 56.1815 65.206 52.2543 59.182C48.3271 53.1581 53.7269 45.6281 66.9812 53.1581C79.2537 68.218 85.8317 86.3903 76.7992 94.8238C71.4227 99.8438 57.6541 87.2939 55.1996 85.2859Z" fill="lightgrey" stroke="white"/>
        <path d="M33.1849 27.2006C37.0183 26.034 49.0849 29.4006 66.6849 52.2006C84.2849 75.0006 64.6849 67.7006 52.6849 61.2006C30.8516 63.2006 -3.61507 59.2006 33.1849 27.2006Z" fill="lightgrey" />
    </g>
    <defs>
        <clipPath id="clip0_102_146">
            <rect width="250" height="250" fill="red"/>
        </clipPath>
    </defs>
</svg>